<mxfile host="app.diagrams.net" modified="2024-05-09T03:18:13.139Z" agent="Mozilla/5.0 (Windows NT 10.0; Win64; x64; rv:125.0) Gecko/20100101 Firefox/125.0" version="24.3.1" etag="7W6ZUi2qfwcLDqQLamvg" type="github">
  <diagram name="PÃ¡gina-1" id="IMFNQtGXaGnJ-T0fwail">
    <mxGraphModel>
      <root>
        <mxCell id="0" />
        <mxCell id="1" parent="0" />
      </root>
    </mxGraphModel>
  </diagram>
</mxfile>
